<?xml version="1.0" standalone="no"?><!DOCTYPE svg PUBLIC "-//W3C//DTD SVG 1.1//EN" "http://www.w3.org/Graphics/SVG/1.1/DTD/svg11.dtd"><svg t="1522582754859" class="icon" style="" viewBox="0 0 1024 1024" version="1.1" xmlns="http://www.w3.org/2000/svg" p-id="6498" xmlns:xlink="http://www.w3.org/1999/xlink" width="200" height="200"><defs><style type="text/css"></style></defs><path d="M239.8 306.2v116.7h-89.6V306.2h89.6m16-16H134.2v148.7h121.6V290.2z" fill="#581166" p-id="6499"></path><path d="M239.8 306.2v116.7h-89.6V306.2h89.6" fill="#FF5855" p-id="6500"></path><path d="M873.3 306.2v116.7h-89.6V306.2h89.6m16-16H767.7v148.7h121.6V290.2z" fill="#581166" p-id="6501"></path><path d="M873.3 306.2v116.7h-89.6V306.2h89.6" fill="#FF5855" p-id="6502"></path><path d="M801.7 255.8v554.9h-581V255.8h581" fill="#FF5855" p-id="6503"></path><path d="M801.7 826.7V699.2c0-23.1-9.1-44.9-25.6-61.4s-38.3-25.6-61.4-25.6H308.8c-23.1 0-44.9 9.1-61.4 25.6s-25.6 38.3-25.6 61.4v127.5h579.9z" fill="#FF9292" p-id="6504"></path><path d="M223.8 239.8c11.2-16.7 23.6-32.5 37.4-47.2 32.6-35.1 70.6-62.6 112.8-81.8 43.6-19.9 90-29.9 137.8-29.9 47.8 0 94.1 10.1 137.8 29.9 42.2 19.2 80.2 46.8 112.8 81.8 13.7 14.7 25 30.5 36.2 47.2h19.1c-66.7-105.6-178.2-175-305.9-175s-240.3 69.4-307 175h19z" fill="#581166" p-id="6505"></path><path d="M430.4 714.5h163.2v23.3H430.4z" fill="#D31818" p-id="6506"></path><path d="M799.8 239.8c-11.2-16.7-23.6-32.5-37.4-47.2-32.6-35.1-70.6-62.6-112.8-81.8-43.6-19.9-90-29.9-137.8-29.9-47.8 0-94.1 10.1-137.8 29.9-42.2 19.2-80.2 46.8-112.8 81.8a378.19 378.19 0 0 0-37.4 47.2h576z" fill="#FF5855" p-id="6507"></path><path d="M801.7 255.8v239h-581v-239h581m16-16h-613v271h613v-271z" fill="#581166" p-id="6508"></path><path d="M801.7 255.8v239.1h-581V255.8h581" fill="#B8E4FF" p-id="6509"></path><path d="M503.2 502.9v-255c0-4.4 3.6-8 8-8s8 3.6 8 8v255c0 4.4-3.6 8-8 8s-8-3.6-8-8zM221.8 826.7V699.2c0-23.1 9.1-44.9 25.6-61.4s38.3-25.6 61.4-25.6h405.9c23.1 0 44.9 9.1 61.4 25.6s25.6 38.3 25.6 61.4v127.5h16V699.2c0-56.6-46.3-103-103-103H308.8c-56.6 0-103 46.3-103 103v127.5h16z" fill="#581166" p-id="6510"></path><path d="M801.7 255.8v554.9h-581V255.8h581m16-16h-613v586.9h613V239.8z" fill="#581166" p-id="6511"></path><path d="M315.3 702v50.8h-94.5V702h94.5m0.4-16h-95.4c-8.6 0-15.6 7-15.6 15.6v51.7c0 8.6 7 15.6 15.6 15.6h95.4c8.6 0 15.6-7 15.6-15.6v-51.7c0-8.6-7-15.6-15.6-15.6z" fill="#581166" p-id="6512"></path><path d="M315.3 702v50.9h-94.6V702h94.6" fill="#B8E4FF" p-id="6513"></path><path d="M801.7 702v50.8h-94.5V702h94.5m0.4-16h-95.4c-8.6 0-15.6 7-15.6 15.6v51.7c0 8.6 7 15.6 15.6 15.6h95.4c8.6 0 15.6-7 15.6-15.6v-51.7c0-8.6-7-15.6-15.6-15.6z" fill="#581166" p-id="6514"></path><path d="M801.7 702v50.9h-94.5V702h94.5" fill="#B8E4FF" p-id="6515"></path><path d="M601 208.1H421.8c-4.4 0-8-3.6-8-8s3.6-8 8-8H601c4.4 0 8 3.6 8 8s-3.6 8-8 8zM497.6 121.5v-3c0-4.4 3.6-8 8-8s8 3.6 8 8v3c0 4.4-3.6 8-8 8s-8-3.6-8-8zM497.6 148.7v-3c0-4.4 3.6-8 8-8s8 3.6 8 8v3c0 4.4-3.6 8-8 8s-8-3.6-8-8zM454.2 121.5v-3c0-4.4 3.6-8 8-8s8 3.6 8 8v3c0 4.4-3.6 8-8 8s-8-3.6-8-8zM454.2 148.7v-3c0-4.4 3.6-8 8-8s8 3.6 8 8v3c0 4.4-3.6 8-8 8s-8-3.6-8-8zM454.2 175.9v-3c0-4.4 3.6-8 8-8s8 3.6 8 8v3c0 4.4-3.6 8-8 8s-8-3.6-8-8zM552.2 121.5v-3c0-4.4 3.6-8 8-8s8 3.6 8 8v3c0 4.4-3.6 8-8 8s-8-3.6-8-8zM552.2 148.7v-3c0-4.4 3.6-8 8-8s8 3.6 8 8v3c0 4.4-3.6 8-8 8s-8-3.6-8-8zM552.2 175.9v-3c0-4.4 3.6-8 8-8s8 3.6 8 8v3c0 4.4-3.6 8-8 8s-8-3.6-8-8zM601.7 714.5H422.4c-4.4 0-8-3.6-8-8s3.6-8 8-8h179.2c4.4 0 8 3.6 8 8 0.1 4.4-3.5 8-7.9 8z" fill="#581166" p-id="6516"></path><path d="M414.4 738.7v-32.1c0-4.4 3.6-8 8-8s8 3.6 8 8v32.1c0 4.4-3.6 8-8 8s-8-3.6-8-8zM459.2 738.7v-32.1c0-4.4 3.6-8 8-8s8 3.6 8 8v32.1c0 4.4-3.6 8-8 8s-8-3.6-8-8zM504 738.7v-32.1c0-4.4 3.6-8 8-8s8 3.6 8 8v32.1c0 4.4-3.6 8-8 8s-8-3.6-8-8zM548.9 738.7v-32.1c0-4.4 3.6-8 8-8s8 3.6 8 8v32.1c0 4.4-3.6 8-8 8s-8-3.6-8-8zM593.7 738.7v-32.1c0-4.4 3.6-8 8-8s8 3.6 8 8v32.1c0 4.4-3.6 8-8 8s-8-3.6-8-8z" fill="#581166" p-id="6517"></path><path d="M691.2 752.9H332.9c-4.4 0-8-3.6-8-8s3.6-8 8-8h358.3c4.4 0 8 3.6 8 8s-3.6 8-8 8zM388.1 826.7c1.5 0 2.8 1.3 2.8 2.8v111.1c0 1.5-1.3 2.8-2.8 2.8h-84.5c-1.5 0-2.8-1.3-2.8-2.8V829.5c0-1.5 1.3-2.8 2.8-2.8h84.5m0-16h-84.5c-10.3 0-18.8 8.5-18.8 18.8v111.1c0 10.3 8.5 18.8 18.8 18.8h84.5c10.3 0 18.8-8.5 18.8-18.8V829.5c0-10.3-8.5-18.8-18.8-18.8z" fill="#581166" p-id="6518"></path><path d="M388.1 826.7c1.5 0 2.8 1.3 2.8 2.8v111.1c0 1.5-1.3 2.8-2.8 2.8h-84.5c-1.5 0-2.8-1.3-2.8-2.8V829.5c0-1.5 1.3-2.8 2.8-2.8h84.5" fill="#FF5855" p-id="6519"></path><path d="M333 922.1h-32.1c-4.4 0-8-3.6-8-8s3.6-8 8-8H333c4.4 0 8 3.6 8 8s-3.6 8-8 8zM395.4 852.1h-32.2c-4.4 0-8-3.6-8-8s3.6-8 8-8h32.2c4.4 0 8 3.6 8 8s-3.6 8-8 8zM397.6 898.1h-32.2c-4.4 0-8-3.6-8-8s3.6-8 8-8h32.2c4.4 0 8 3.6 8 8s-3.6 8-8 8z" fill="#581166" p-id="6520"></path><path d="M718.3 826.7c1.5 0 2.8 1.3 2.8 2.8v111.1c0 1.5-1.3 2.8-2.8 2.8h-84.5c-1.5 0-2.8-1.3-2.8-2.8V829.5c0-1.5 1.3-2.8 2.8-2.8h84.5m0-16h-84.5c-10.3 0-18.8 8.5-18.8 18.8v111.1c0 10.3 8.5 18.8 18.8 18.8h84.5c10.3 0 18.8-8.5 18.8-18.8V829.5c0-10.3-8.5-18.8-18.8-18.8z" fill="#581166" p-id="6521"></path><path d="M718.3 826.7c1.5 0 2.8 1.3 2.8 2.8v111.1c0 1.5-1.3 2.8-2.8 2.8h-84.5c-1.5 0-2.8-1.3-2.8-2.8V829.5c0-1.5 1.3-2.8 2.8-2.8h84.5" fill="#FF5855" p-id="6522"></path><path d="M645.9 922.1H631c-4.4 0-8-3.6-8-8s3.6-8 8-8h14.8c4.4 0 8 3.6 8 8 0.1 4.4-3.5 8-7.9 8zM661.1 852.1h-32.2c-4.4 0-8-3.6-8-8s3.6-8 8-8h32.2c4.4 0 8 3.6 8 8s-3.6 8-8 8zM727.8 898.1H710c-4.4 0-8-3.6-8-8s3.6-8 8-8h17.8c4.4 0 8 3.6 8 8s-3.6 8-8 8z" fill="#581166" p-id="6523"></path><path d="M825.7 329v-46c0-4.4 3.6-8 8-8s8 3.6 8 8v46c0 4.4-3.6 8-8 8s-8-3.6-8-8z" fill="#581166" p-id="6524"></path><path d="M833.7 337h-20.5c-4.4 0-8-3.6-8-8s3.6-8 8-8h20.5c4.4 0 8 3.6 8 8s-3.6 8-8 8z" fill="#581166" p-id="6525"></path><path d="M194.9 329v-46c0-4.4-3.6-8-8-8s-8 3.6-8 8v46c0 4.4 3.6 8 8 8s8-3.6 8-8z" fill="#581166" p-id="6526"></path><path d="M392.5 287.2v-23.4c0-4.4-3.6-8-8-8s-8 3.6-8 8v23.4c0 4.4 3.6 8 8 8s8-3.6 8-8z" fill="#FFFFFF" p-id="6527"></path><path d="M692 486.9v-23.4c0-4.4-3.6-8-8-8s-8 3.6-8 8v23.4c0 4.4 3.6 8 8 8s8-3.6 8-8z" fill="#FFFFFF" p-id="6528"></path><path d="M186.9 337h20.5c4.4 0 8-3.6 8-8s-3.6-8-8-8h-20.5c-4.4 0-8 3.6-8 8s3.6 8 8 8z" fill="#581166" p-id="6529"></path><path d="M268 727.4m-11.7 0a11.7 11.7 0 1 0 23.4 0 11.7 11.7 0 1 0-23.4 0Z" fill="#581166" p-id="6530"></path><path d="M761.4 727.4m-11.7 0a11.7 11.7 0 1 0 23.4 0 11.7 11.7 0 1 0-23.4 0Z" fill="#581166" p-id="6531"></path></svg>