<?xml version="1.0" standalone="no"?><!DOCTYPE svg PUBLIC "-//W3C//DTD SVG 1.1//EN" "http://www.w3.org/Graphics/SVG/1.1/DTD/svg11.dtd"><svg t="1522582705103" class="icon" style="" viewBox="0 0 1024 1024" version="1.1" xmlns="http://www.w3.org/2000/svg" p-id="5929" xmlns:xlink="http://www.w3.org/1999/xlink" width="200" height="200"><defs><style type="text/css"></style></defs><path d="M876 970.5H148.2c-43.2 0-78.2-35-78.2-78.2v-618h884.4v618c-0.1 43.1-35.2 78.2-78.4 78.2z" fill="#FFFFFF" p-id="5930"></path><path d="M876 976.4H148.2c-46.4 0-84.2-37.8-84.2-84.2v-618c0-3.3 2.6-5.9 5.9-5.9h884.4c3.3 0 5.9 2.6 5.9 5.9v618c0 46.4-37.8 84.2-84.2 84.2zM75.8 280.1v612.1c0 39.9 32.4 72.3 72.3 72.3H876c39.9 0 72.3-32.4 72.3-72.3V280.1H75.8z" fill="#0C0C0C" p-id="5931"></path><path d="M827.4 178.1v-125h-162v125H358.8v-125h-162v125H69.9v192.2h884.4V178.1z" fill="#9FE2CD" p-id="5932"></path><path d="M954.3 376.2H69.9c-3.3 0-5.9-2.6-5.9-5.9V178.1c0-3.3 2.6-5.9 5.9-5.9h120.9v-119c0-3.3 2.6-5.9 5.9-5.9h162c3.3 0 5.9 2.6 5.9 5.9v119h294.7v-119c0-3.3 2.6-5.9 5.9-5.9h162c3.3 0 5.9 2.6 5.9 5.9v119H954c3.3 0 5.9 2.6 5.9 5.9v192.3c0.3 3.2-2.4 5.8-5.6 5.8zM75.8 364.4h872.5V184H827.4c-3.3 0-5.9-2.6-5.9-5.9V59H671.3v119c0 3.3-2.6 5.9-5.9 5.9H358.8c-3.3 0-5.9-2.6-5.9-5.9V59H202.7v119c0 3.3-2.6 5.9-5.9 5.9h-121v180.5z" fill="#0C0C0C" p-id="5933"></path><path d="M272.4 217.6c-3.3 0-5.9-2.6-5.9-5.9V110.8c0-3.3 2.6-5.9 5.9-5.9 3.3 0 5.9 2.6 5.9 5.9v100.9c0 3.3-2.6 5.9-5.9 5.9zM748.2 217.6c-3.3 0-5.9-2.6-5.9-5.9V110.8c0-3.3 2.6-5.9 5.9-5.9s5.9 2.6 5.9 5.9v100.9c0.1 3.3-2.6 5.9-5.9 5.9z" fill="#0C0C0C" p-id="5934"></path><path d="M446.2 456.9c-22.6 0-41.9 14.8-49.2 35.6-7.3-20.8-26.6-35.6-49.2-35.6-28.9 0-52.9 24.3-52.4 54.2 0.9 48.4 80.2 110.3 101.6 110.3 21.4 0 101.1-56.8 101.6-110.3 0.2-29.9-23.5-54.2-52.4-54.2z" fill="#F9AFBD" p-id="5935"></path><path d="M396.9 627.4c-8.1 0-19.7-6.2-27.9-11.3-11.3-7.1-23.6-16.8-34.6-27.3-38.5-36.7-44.7-64.3-44.9-77.5-0.3-16.1 5.7-31.3 17-42.8 11.1-11.3 25.7-17.5 41.3-17.5 20.2 0 38.7 10.8 49.2 27.9 10.6-17.1 29.1-27.9 49.2-27.9 15.4 0 30 6.1 41 17.2 11.3 11.5 17.5 26.7 17.3 43-0.3 33.5-28.3 64.2-44.9 79.5-22.7 20.9-49.6 36.7-62.7 36.7z m-49.2-164.6c-12.4 0-24 4.9-32.8 13.9-9 9.2-13.9 21.4-13.6 34.3 0.4 19.3 15.4 44.5 41.3 69.1 24.2 23.1 47.2 35.4 54.4 35.4 7.6 0 30.9-11.7 54.6-33.5 35.5-32.7 41-58.5 41.1-70.9 0.1-13.1-4.8-25.3-13.9-34.5-8.8-8.9-20.3-13.7-32.5-13.7-19.4 0-37 12.7-43.6 31.7-0.8 2.4-3.1 3.9-5.6 3.9-2.5 0-4.7-1.6-5.6-3.9-6.8-19.1-24.4-31.8-43.8-31.8z" fill="#0C0C0C" p-id="5936"></path><path d="M535.4 485.6c-3.6-3.6-3.6-5.5-0.5-9l17.5-22.2c7.1-8.8 15.3-13.2 24.4-13.2 15.1 0 21.9 7.7 21.9 29.3v144.4c0 5.2-1.4 6.6-6.6 6.6h-2.2c-5.2 0-6.6-1.4-6.6-6.6V476.3c0-17.5 0.3-19.2-8.2-20.8-4.1 0-8.5 3-13.1 9l-17 21.9c-3 3.6-4.7 3.8-8.2 0.5l-1.4-1.3zM668.8 450.5c1.9-5.8 3.6-7.1 9.9-7.1h1.1c6.3 0 7.1 1.4 5.2 7.1l-31.5 94.8c-4.7 15.1-0.3 21.1 15.9 21.1h56.2v-72.6c0-5.2 1.4-6.6 6.6-6.6h2.2c5.2 0 6.6 1.4 6.6 6.6v121.1c0 5.2-1.4 6.6-6.6 6.6h-2.2c-5.2 0-6.6-1.4-6.6-6.6v-34.2H671c-31 0-41.1-12.9-31.2-42.5l29-87.7z" fill="" p-id="5937"></path><path d="M335.1 778.2v85.7c0 5.6-1.5 7.1-7.1 7.1h-2.1c-5.6 0-7.1-1.5-7.1-7.1V709.1c0-21.6 9.2-30.8 30.8-30.8h80.7c5.6 0 7.1 1.5 7.1 7.1v1.2c0 5.6-1.5 7.1-7.1 7.1h-79.2c-11 0-16 5-16 16v53.1h83.3c5.6 0 7.1 1.5 7.1 7.1v1.2c0 5.6-1.5 7.1-7.1 7.1h-83.3zM486.9 777.6v62c0 11 5 16 16 16h80.4c5.6 0 7.1 1.5 7.1 7.1v1.2c0 5.6-1.5 7.1-7.1 7.1h-81.8c-21.6 0-30.8-9.2-30.8-30.8V709.1c0-21.6 9.2-30.8 30.8-30.8h81.8c5.6 0 7.1 1.5 7.1 7.1v1.2c0 5.6-1.5 7.1-7.1 7.1h-80.4c-11 0-16 5-16 16v52.5h84.5c5.6 0 7.1 1.5 7.1 7.1v1.2c0 5.6-1.5 7.1-7.1 7.1h-84.5zM690.6 678.3c46.3 0 63.5 16.9 63.5 50.1 0 25.8-9.2 38.8-35.6 42.7v1.2c31.1 3.3 41.5 18.4 41.5 45.7 0 34.7-16.9 53.1-64.1 53.1h-38.8c-21.6 0-30.8-9.2-30.8-30.8V709.1c0-21.6 9.2-30.8 30.8-30.8h33.5z m-32 15.4c-11 0-16 5-16 16v55.2h48c35.6 0 46.9-11 46.9-35.6s-11.3-35.6-46.9-35.6h-32z m-16 86.3v59.6c0 11 5 16 16 16h35.9c37.1 0 48.9-11.3 48.9-37.7 0-26.4-11-38-47.4-38h-53.4z" fill="" p-id="5938"></path></svg>