<?xml version="1.0" standalone="no"?><!DOCTYPE svg PUBLIC "-//W3C//DTD SVG 1.1//EN" "http://www.w3.org/Graphics/SVG/1.1/DTD/svg11.dtd"><svg t="1522582780350" class="icon" style="" viewBox="0 0 1024 1024" version="1.1" xmlns="http://www.w3.org/2000/svg" p-id="6658" xmlns:xlink="http://www.w3.org/1999/xlink" width="200" height="200"><defs><style type="text/css"></style></defs><path d="M893.35296 135.26528H120.40192C79.34976 135.26528 46.08 168.53504 46.08 209.59232V804.16256c0 41.05216 33.26976 74.32704 74.32192 74.32704h772.95104c41.05728 0 74.32704-33.27488 74.32704-74.32704V209.59232c0-41.05728-33.26976-74.32704-74.32704-74.32704z" fill="#EA5455" p-id="6659"></path><path d="M848.76288 373.09952H164.99712a44.58496 44.58496 0 0 0-44.59008 44.59008v341.87776a44.58496 44.58496 0 0 0 44.59008 44.5952H848.768a44.57984 44.57984 0 0 0 44.59008-44.5952V417.69472a44.5952 44.5952 0 0 0-44.5952-44.5952z" fill="#FFFFFF" p-id="6660"></path><path d="M209.59232 714.98752h89.18528v-89.1904H209.59232v89.1904z m267.55584-89.1904H358.23616v29.73184h118.91712v-29.73184zM209.59232 551.4752h89.18528V462.28992H209.59232v89.18528z m356.74624-29.73184H358.23616v29.73184h208.10752v-29.73184z m59.45856-59.45344H358.23616v29.72672h267.56096v-29.72672z m14.86336 252.6976h163.51232v-29.73184h-163.51232v29.73184z m-282.42432 0h237.82912v-29.73184H358.23616v29.73184z m252.69248-163.51232h193.23904v-29.73184h-193.23904v29.73184z m163.51232-89.18528h-104.04864v29.72672H804.1728v-29.72672h-29.73184z m-252.6976 193.23392h282.42432v-29.73184h-282.42432v29.73184z" fill="#D5D5D5" p-id="6661"></path><path d="M164.99712 209.59232a44.58496 44.58496 0 0 0-44.59008 44.59008 44.58496 44.58496 0 0 0 44.59008 44.5952 44.58496 44.58496 0 0 0 44.5952-44.5952 44.58496 44.58496 0 0 0-44.5952-44.59008z m133.78048 0a44.58496 44.58496 0 0 0-44.5952 44.59008 44.58496 44.58496 0 0 0 44.5952 44.5952 44.58496 44.58496 0 0 0 44.59008-44.5952 44.58496 44.58496 0 0 0-44.59008-44.59008z m133.78048 0a44.57984 44.57984 0 0 0-44.59008 44.59008 44.58496 44.58496 0 0 0 44.59008 44.5952 44.58496 44.58496 0 0 0 44.59008-44.5952 44.58496 44.58496 0 0 0-44.59008-44.59008z" fill="#FFFFFF" p-id="6662"></path></svg>