<?xml version="1.0" standalone="no"?><!DOCTYPE svg PUBLIC "-//W3C//DTD SVG 1.1//EN" "http://www.w3.org/Graphics/SVG/1.1/DTD/svg11.dtd"><svg t="1522582696879" class="icon" style="" viewBox="0 0 1024 1024" version="1.1" xmlns="http://www.w3.org/2000/svg" p-id="5790" xmlns:xlink="http://www.w3.org/1999/xlink" width="200" height="200"><defs><style type="text/css"></style></defs><path d="M815.3 384L509.9 143.4 204.5 384H168v28.7l-6.2 4.9h6.2v536h696.2V384z" fill="#FFFFFF" p-id="5791"></path><path d="M864.2 959.6H168c-3.3 0-6-2.7-6-6v-530h-0.2c-2.6 0-4.8-1.6-5.7-4-0.8-2.4-0.1-5.1 2-6.7l3.9-3.1V384c0-3.3 2.7-6 6-6h34.4l303.8-239.3c2.2-1.7 5.2-1.7 7.4 0L817.4 378h46.8c3.3 0 6 2.7 6 6v569.6c0 3.3-2.7 6-6 6z m-690.2-12h684.2V390h-42.9c-1.3 0-2.7-0.5-3.7-1.3L509.9 151 208.2 388.7c-1.1 0.8-2.4 1.3-3.7 1.3H174v22.8c0 0.8-0.2 1.7-0.5 2.4 0.3 0.7 0.5 1.6 0.5 2.4v530z" fill="#0C0C0C" p-id="5792"></path><path d="M453.8 129.2l-424 343L89 531.4l424-343 424 343 59.2-59.2-424-343L513 70z" fill="#EFF9F8" p-id="5793"></path><path d="M89 537.4c-1.5 0-3.1-0.6-4.2-1.8l-59.2-59.2c-1.2-1.2-1.8-2.9-1.7-4.6s0.9-3.3 2.2-4.3l423.7-342.7 59-59c1.1-1.1 2.7-1.8 4.2-1.8 1.6 0 3.1 0.6 4.2 1.8l59 59 423.7 342.7c1.3 1.1 2.1 2.7 2.2 4.3 0.1 1.7-0.5 3.4-1.7 4.6l-59.2 59.2c-2.2 2.2-5.6 2.4-8 0.4L513 196.2 92.8 536c-1.1 0.9-2.4 1.4-3.8 1.4z m-50.2-64.8l50.7 50.7 419.8-339.5c2.2-1.8 5.3-1.8 7.5 0l419.8 339.5 50.7-50.7-418.9-338.7c-0.2-0.1-0.3-0.3-0.5-0.4l-55-55-55 55c-0.1 0.1-0.3 0.3-0.5 0.4L38.8 472.6z" fill="#0C0C0C" p-id="5794"></path><path d="M589 557.2H437V405.1h152z" fill="#F9AFBD" p-id="5795"></path><path d="M589 563.2H437c-3.3 0-6-2.7-6-6V405.1c0-3.3 2.7-6 6-6h152c3.3 0 6 2.7 6 6v152.1c0 3.3-2.7 6-6 6z m-146-12h140V411.1H443v140.1z" fill="#0C0C0C" p-id="5796"></path><path d="M589 487.2H437c-3.3 0-6-2.7-6-6s2.7-6 6-6h152c3.3 0 6 2.7 6 6s-2.7 6-6 6z" fill="#0C0C0C" p-id="5797"></path><path d="M513 563.2c-3.3 0-6-2.7-6-6V405.1c0-3.3 2.7-6 6-6s6 2.7 6 6v152.1c0 3.3-2.7 6-6 6z" fill="#0C0C0C" p-id="5798"></path><path d="M422.6 640.5h180.7v313.1H422.6z" fill="#9FE2CD" p-id="5799"></path><path d="M603.4 959.6H422.6c-3.3 0-6-2.7-6-6V640.5c0-3.3 2.7-6 6-6h180.7c3.3 0 6 2.7 6 6v313.1c0.1 3.3-2.6 6-5.9 6z m-174.8-12h168.7V646.5H428.6v301.1z" fill="#0C0C0C" p-id="5800"></path><path d="M464.6 797.2m-12.8 0a12.8 12.8 0 1 0 25.6 0 12.8 12.8 0 1 0-25.6 0Z" fill="#0C0C0C" p-id="5801"></path><path d="M130.4 947.6h765.2v12H130.4z" fill="#0C0C0C" p-id="5802"></path></svg>