<?xml version="1.0" standalone="no"?><!DOCTYPE svg PUBLIC "-//W3C//DTD SVG 1.1//EN" "http://www.w3.org/Graphics/SVG/1.1/DTD/svg11.dtd"><svg t="1528611899917" class="icon" style="" viewBox="0 0 1024 1024" version="1.1" xmlns="http://www.w3.org/2000/svg" p-id="8522" xmlns:xlink="http://www.w3.org/1999/xlink" width="128" height="128"><defs><style type="text/css"></style></defs><path d="M854.24 944h-672V106.88h672c33.6 0 61.44 27.36 61.44 61.44v714.72c-0.48 33.6-27.84 60.96-61.44 60.96z" fill="#FFFFFF" p-id="8523"></path><path d="M91.52 352.64H209.6c14.4 0 25.92-12 25.92-26.88 0-14.88-11.52-26.88-25.92-26.88H91.52c-14.4 0-25.92 12-25.92 26.88 0 14.88 11.52 26.88 25.92 26.88zM91.52 544.64H209.6c14.4 0 25.92-12 25.92-26.88 0-7.2-2.88-13.92-7.68-18.72-4.8-5.28-11.52-7.68-18.24-7.68H91.52c-14.4 0-25.92 12-25.92 26.88 0 14.4 11.52 26.4 25.92 26.4zM235.52 709.28c0-7.2-2.88-13.92-7.68-18.72-4.8-5.28-11.52-7.68-18.24-7.68H91.52c-14.4 0-25.92 12-25.92 26.88 0 14.88 11.52 26.88 25.92 26.88H209.6c14.4-0.48 25.92-12.48 25.92-27.36zM318.08 736.64l-3.36 8.64h57.6l1.92-3.36c26.88-50.88 90.24-87.84 154.08-90.24h12.96c63.84 2.4 127.2 39.36 154.08 90.24l1.92 3.36h57.6l-3.36-8.64c-10.56-25.44-28.8-50.4-52.8-72-18.72-16.8-41.28-32.16-64.8-43.2 23.04-14.88 43.2-35.52 57.12-59.04 16.8-27.84 25.92-60 25.92-92.64 0-100.32-81.6-181.92-181.92-181.92s-181.92 81.6-181.92 181.92c0 32.64 9.12 64.8 25.92 93.12 14.4 23.52 34.08 44.16 57.6 59.04-23.52 11.52-46.08 26.4-64.8 43.2-24.96 21.12-43.2 46.08-53.76 71.52z" fill="#F45C31" p-id="8524"></path><path d="M534.08 340.64c71.04 0 129.12 58.08 129.12 129.12 0 71.04-58.08 129.12-129.12 129.12-71.04 0-129.12-58.08-129.12-129.12 0-71.52 58.08-129.12 129.12-129.12z" fill="#FFFFFF" p-id="8525"></path><path d="M841.28 65.12h-614.4c-53.76 0-97.44 43.68-97.44 97.44v72.96h52.32v-62.4c0-36.96 19.68-56.16 56.16-56.16h592.8c36.96 0 56.16 19.68 56.16 56.16v689.76c0 36.96-19.68 56.16-56.16 56.16H237.92c-36.96 0-56.16-19.68-56.16-56.16v-61.92H129.44v71.52c0 53.76 43.68 97.44 97.44 97.44h614.4c53.76 0 97.44-43.68 97.44-97.44v-710.4c0-53.28-43.68-96.96-97.44-96.96z" fill="#F45C31" p-id="8526"></path></svg>