<?xml version="1.0" standalone="no"?><!DOCTYPE svg PUBLIC "-//W3C//DTD SVG 1.1//EN" "http://www.w3.org/Graphics/SVG/1.1/DTD/svg11.dtd"><svg t="1529249102242" class="icon" style="" viewBox="0 0 1024 1024" version="1.1" xmlns="http://www.w3.org/2000/svg" p-id="5934" xmlns:xlink="http://www.w3.org/1999/xlink" width="128" height="128"><defs><style type="text/css"></style></defs><path d="M816.1 910.8H159.6c-40.5 0-73.4-30.9-73.4-68.8V202c0-37.9 32.9-68.8 73.4-68.8h335c10.9 0 19.8 8.9 19.8 19.8s-8.9 19.8-19.8 19.8h-335c-18.6 0-33.8 13.1-33.8 29.2v640c0 16.1 15.2 29.2 33.8 29.2h656.5c18.6 0 33.8-13.1 33.8-29.2l-1.5-303.8c-0.1-10.9 8.8-19.8 19.7-19.9 11 0 19.8 8.8 19.9 19.7l1.5 303.9c0 38-32.9 68.9-73.4 68.9z" fill="#231815" p-id="5935"></path><path d="M745.5 532.9l1 205.8c0 18.3-16.3 33.2-36.3 33.2H265.5c-20.1 0-36.3-14.9-36.3-33.2V305.3c0-18.3 16.3-33.2 36.3-33.2h226.9" fill="#FEE632" p-id="5936"></path><path d="M475.8 562c-5.2 0-10.4-2.1-14.3-6.1L376.7 467c-3.7-3.9-5.7-9.1-5.5-14.5 0.2-5.4 2.6-10.4 6.7-14l347.6-307.3c8-7 20.1-6.5 27.4 1.2l84.8 88.9c3.7 3.9 5.7 9.1 5.5 14.5-0.2 5.4-2.6 10.4-6.7 14L488.9 557.1c-3.7 3.3-8.4 4.9-13.1 4.9z m-56.3-107.5l57.5 60.2 317.9-281-57.5-60.2-317.9 281z" fill="#231815" p-id="5937"></path><path d="M824.2 254.1c-5.2 0-10.4-2.1-14.3-6.1L725 159.1c-3.7-3.9-5.7-9.1-5.5-14.5 0.2-5.4 2.6-10.4 6.7-14l52.6-46.5c8-7 20.1-6.5 27.4 1.2l84.8 88.9c3.7 3.9 5.7 9.1 5.5 14.5-0.2 5.4-2.6 10.4-6.7 14l-52.6 46.5c-3.7 3.3-8.4 4.9-13 4.9z m-56.3-107.5l57.5 60.2 22.9-20.2-57.5-60.2-22.9 20.2zM332.6 606.7c-5.5 0-10.9-2.3-14.8-6.6-5.2-5.8-6.5-14.1-3.4-21.2l59-134.1c2.7-6.1 8.2-10.4 14.7-11.5 6.5-1.1 13.2 1 17.7 5.8l84.8 88.9c4.7 4.9 6.6 12 4.8 18.6-1.7 6.6-6.7 11.9-13.2 13.9l-143.8 45.1c-1.8 0.8-3.8 1.1-5.8 1.1zM397.7 488l-29.5 66.9 71.8-22.5-42.3-44.4zM724.2 647.9H595.6c-10.7 0-19.4-8.7-19.4-19.4v-0.9c0-10.7 8.7-19.4 19.4-19.4h128.6c10.7 0 19.4 8.7 19.4 19.4v0.9c0 10.7-8.7 19.4-19.4 19.4zM752.5 780.2H223.2c-10 0-18.2-8.2-18.2-18.2v-3.2c0-10 8.2-18.2 18.2-18.2h529.3c10 0 18.2 8.2 18.2 18.2v3.2c0 10-8.2 18.2-18.2 18.2z" fill="#231815" p-id="5938"></path></svg>