<?xml version="1.0" standalone="no"?><!DOCTYPE svg PUBLIC "-//W3C//DTD SVG 1.1//EN" "http://www.w3.org/Graphics/SVG/1.1/DTD/svg11.dtd"><svg t="1529249160114" class="icon" style="" viewBox="0 0 1024 1024" version="1.1" xmlns="http://www.w3.org/2000/svg" p-id="6090" xmlns:xlink="http://www.w3.org/1999/xlink" width="128" height="128"><defs><style type="text/css"></style></defs><path d="M86.96201 729.043695a26.022285 26.022285 0 0 1 38.613713 0 27.701142 27.701142 0 0 1 0 38.613713L58.001725 835.231406a26.861714 26.861714 0 0 1-39.033427 0 27.701142 27.701142 0 0 1 0-38.613713z" fill="#4E8CEE" p-id="6091"></path><path d="M171.744294 597.673127c-3.357714 26.022285-3.357714 52.883999-5.876 78.906284l180.057424 180.477138c26.022285 0 52.464284-2.938 78.906283-6.295714a633.768555 633.768555 0 0 0 95.694855-19.306857 41.971427 41.971427 0 0 1 14.689999 0 46.16857 46.16857 0 0 1 44.489713 47.847427 306.39142 306.39142 0 0 1-23.084285 105.348283c-5.456286 11.752-10.912571 23.923714-17.627999 35.255999a182.155995 182.155995 0 0 0 76.807712 0 214.473994 214.473994 0 0 0 115.421426-57.500855v-2.098572a206.079709 206.079709 0 0 0 57.500855-106.187711 209.857137 209.857137 0 0 0-9.233714-121.297426 46.588284 46.588284 0 0 1 12.591428-49.945998l14.69-13.850571 11.752-11.752a679.097696 679.097696 0 0 0 177.119424-307.230849A685.39341 685.39341 0 0 0 1007.815129 16.788571a692.528553 692.528553 0 0 0-330.315135 6.715428 684.134268 684.134268 0 0 0-309.749134 178.378567l-13.011143 12.171714-13.011142 13.850571a45.329142 45.329142 0 0 1-51.624856 13.850571A209.857137 209.857137 0 0 0 168.386579 232.941422a204.400852 204.400852 0 0 0-105.348283 57.500856A216.99228 216.99228 0 0 0 4.698012 483.930559a280.78885 280.78885 0 0 1 37.774285-17.628 331.574277 331.574277 0 0 1 104.08914-23.503999 38.613713 38.613713 0 0 1 15.529428 0A45.329142 45.329142 0 0 1 192.310293 503.65713a713.514267 713.514267 0 0 0-20.565999 96.114568z" fill="#A6C5F6" p-id="6092"></path><path d="M255.687149 897.349119a27.281428 27.281428 0 0 1 38.613713 38.613713l-68.833141 67.993713a26.441999 26.441999 0 0 1-37.774285 0 26.022285 26.022285 0 0 1 0-38.613713zM171.324579 812.566836a27.281428 27.281428 0 1 1 38.613714 39.033427L55.48344 1007.314259a27.281428 27.281428 0 0 1-38.193999 0 26.861714 26.861714 0 0 1 0-41.971427z" fill="#4E8CEE" p-id="6093"></path><path d="M878.962846 313.946277a170.403995 170.403995 0 1 1-169.984281-169.984281 167.88571 167.88571 0 0 1 169.984281 169.984281z" fill="#FFFFFF" p-id="6094"></path><path d="M708.978565 198.524852a115.001711 115.001711 0 1 0 115.421426 115.421425 115.001711 115.001711 0 0 0-115.421426-115.421425z" fill="#4E8CEE" p-id="6095"></path></svg>