<?xml version="1.0" standalone="no"?><!DOCTYPE svg PUBLIC "-//W3C//DTD SVG 1.1//EN" "http://www.w3.org/Graphics/SVG/1.1/DTD/svg11.dtd"><svg t="1522582670046" class="icon" style="" viewBox="0 0 1024 1024" version="1.1" xmlns="http://www.w3.org/2000/svg" p-id="5638" xmlns:xlink="http://www.w3.org/1999/xlink" width="200" height="200"><defs><style type="text/css"></style></defs><path d="M585.2 246.9v146H451.8v-146h133.4m16-16H435.8v178h165.4v-178z" fill="#581166" p-id="5639"></path><path d="M585.2 246.9v146H451.8v-146h133.4" fill="#86CAFC" p-id="5640"></path><path d="M451.9 234.4v-1c22.1-67.4 43-95.1 66.7-111.5 14.2 9 26 20.4 35.9 34.6 13.5 19.5 23.6 44.4 30.7 76.1v1.7h16v-3.5c-16-72.2-45.4-104.4-83-127.7-31.4 18.5-56.7 48.6-82.4 127.7v3.5h16.1z" fill="#581166" p-id="5641"></path><path d="M585.2 234.4v-1.7c-7.2-31.7-17.2-56.6-30.7-76.1-9.8-14.2-21.6-25.6-35.9-34.6-23.7 16.4-44.6 44.1-66.7 111.5v1h133.3z" fill="#CAEDFF" p-id="5642"></path><path d="M393.1 193.3v146H259.7v-146h133.4m16-16H243.7v178h165.4v-178z" fill="#581166" p-id="5643"></path><path d="M393.1 193.3v146H259.7v-146h133.4" fill="#FF8080" p-id="5644"></path><path d="M259.7 193.3H305v146h-45.3z" fill="#FF5855" p-id="5645"></path><path d="M351.7 193.3h41.4v146h-41.4z" fill="#FFA4A4" p-id="5646"></path><path d="M263.6 177.3l62.8-86.1 62.8 86.1h19.9L326.4 64.1l-82.6 113.2z" fill="#581166" p-id="5647"></path><path d="M389.2 177.3l-62.8-86.1-62.8 86.1z" fill="#FFF7D7" p-id="5648"></path><path d="M293.3 404.8V194.5c0-4.4 3.6-8 8-8s8 3.6 8 8v210.3c0 4.4-3.6 8-8 8s-8-3.6-8-8zM343.7 404.8V194.5c0-4.4 3.6-8 8-8s8 3.6 8 8v210.3c0 4.4-3.6 8-8 8s-8-3.6-8-8z" fill="#581166" p-id="5649"></path><path d="M765.6 193.3v146H632.2v-146h133.4m16-16H616.2v178h165.4v-178z" fill="#581166" p-id="5650"></path><path d="M765.6 193.3v146H632.2v-146h133.4" fill="#FCD29F" p-id="5651"></path><path d="M632.2 193.3h45.3v146h-45.3z" fill="#FFC86B" p-id="5652"></path><path d="M724.2 193.3h41.4v146h-41.4z" fill="#FFE4C0" p-id="5653"></path><path d="M636.1 177.3l62.8-86.1 62.8 86.1h19.9L698.9 64.1l-82.6 113.2z" fill="#581166" p-id="5654"></path><path d="M761.7 177.3l-62.8-86.1-62.8 86.1z" fill="#FFFCF0" p-id="5655"></path><path d="M665.8 404.8V194.5c0-4.4 3.6-8 8-8s8 3.6 8 8v210.3c0 4.4-3.6 8-8 8s-8-3.6-8-8zM716.2 404.8V194.5c0-4.4 3.6-8 8-8s8 3.6 8 8v210.3c0 4.4-3.6 8-8 8s-8-3.6-8-8z" fill="#581166" p-id="5656"></path><path d="M799.8 339.1v553.3c0 13.6-5.4 26.5-15.1 36.2-9.7 9.7-22.6 15.1-36.2 15.1H276c-13.6 0-26.5-5.4-36.2-15.1-9.7-9.7-15.1-22.6-15.1-36.2V339.1H799.8m16-16H208.7v569.3c0 37 30.3 67.3 67.3 67.3h472.5c37 0 67.3-30.3 67.3-67.3V323.1z" fill="#581166" p-id="5657"></path><path d="M799.8 339.1v553.3c0 13.6-5.4 26.5-15.1 36.2-9.7 9.7-22.6 15.1-36.2 15.1H276c-13.6 0-26.5-5.4-36.2-15.1-9.7-9.7-15.1-22.6-15.1-36.2V339.1H799.8" fill="#5EAAEF" p-id="5658"></path><path d="M807.8 448.1h-591c-4.4 0-8-3.6-8-8s3.6-8 8-8h591c4.4 0 8 3.6 8 8s-3.6 8-8 8z" fill="#581166" p-id="5659"></path><path d="M658.6 597.5v123H375.1v-123h283.5m12-16H363.1c-2.2 0-4 1.8-4 4v147c0 2.2 1.8 4 4 4h307.5c2.2 0 4-1.8 4-4v-147c0-2.2-1.8-4-4-4z" fill="#581166" p-id="5660"></path><path d="M658.6 597.5v123H375.1v-123h283.5" fill="#FFDFB0" p-id="5661"></path><path d="M516.8 634.5c20.4 0 40.1 3.8 54.1 10.3 11 5.2 16 11 16 14.2s-5 9-16 14.2c-14 6.6-33.7 10.3-54.1 10.3s-40.1-3.8-54.1-10.3c-11-5.2-16-11-16-14.2s5-9 16-14.2c14-6.6 33.7-10.3 54.1-10.3m0-16c-47.6 0-86.1 18.1-86.1 40.5s38.5 40.5 86.1 40.5 86.1-18.1 86.1-40.5-38.5-40.5-86.1-40.5z" fill="#581166" p-id="5662"></path><path d="M516.8 634.5c20.4 0 40.1 3.8 54.1 10.3 11 5.2 16 11 16 14.2s-5 9-16 14.2c-14 6.6-33.7 10.3-54.1 10.3s-40.1-3.8-54.1-10.3c-11-5.2-16-11-16-14.2s5-9 16-14.2c14-6.6 33.7-10.3 54.1-10.3" fill="#FFFFFF" p-id="5663"></path></svg>