<?xml version="1.0" standalone="no"?><!DOCTYPE svg PUBLIC "-//W3C//DTD SVG 1.1//EN" "http://www.w3.org/Graphics/SVG/1.1/DTD/svg11.dtd"><svg t="1530697246096" class="icon" style="" viewBox="0 0 1024 1024" version="1.1" xmlns="http://www.w3.org/2000/svg" p-id="5648" xmlns:xlink="http://www.w3.org/1999/xlink" width="128" height="128"><defs><style type="text/css"></style></defs><path d="M837.270588 457.788235c-24.094118-174.682353-192.752941-307.2-391.529412-307.2C228.894118 150.588235 54.211765 301.176471 54.211765 493.929412c0 78.305882 30.117647 150.588235 84.329411 210.823529 6.023529 6.023529 6.023529 18.070588 6.02353 24.094118-12.047059 30.117647-24.094118 54.211765-48.188235 72.282353 30.117647 0 72.282353-6.023529 108.423529-30.117647 6.023529-6.023529 18.070588-6.023529 24.094118 0 66.258824 36.141176 138.541176 54.211765 216.847058 54.211764 42.164706 0 84.329412-6.023529 120.470589-18.070588 12.047059-6.023529 30.117647 6.023529 30.117647 18.070588 6.023529 12.047059-6.023529 30.117647-18.070588 30.117647-42.164706 12.047059-90.352941 18.070588-138.541177 18.070589-78.305882 0-156.611765-18.070588-228.894118-54.211765-60.235294 30.117647-126.494118 30.117647-162.635294 24.094118-18.070588 0-30.117647-12.047059-30.117647-30.117647-6.023529-18.070588 0-30.117647 18.070588-42.164706 24.094118-12.047059 36.141176-36.141176 48.188236-60.235294C36.141176 662.588235 0 578.258824 0 493.929412c0-216.847059 198.776471-391.529412 445.741176-391.529412 228.894118 0 415.623529 150.588235 439.717648 349.364706 0 12.047059-6.023529 24.094118-24.094118 30.117647-6.023529 0-24.094118-12.047059-24.094118-24.094118z" fill="#636686" p-id="5649"></path><path d="M445.741176 493.929412m-30.117647 0a30.117647 30.117647 0 1 0 60.235295 0 30.117647 30.117647 0 1 0-60.235295 0Z" fill="#636686" p-id="5650"></path><path d="M325.270588 493.929412m-30.117647 0a30.117647 30.117647 0 1 0 60.235294 0 30.117647 30.117647 0 1 0-60.235294 0Z" fill="#636686" p-id="5651"></path><path d="M566.211765 493.929412m-30.117647 0a30.117647 30.117647 0 1 0 60.235294 0 30.117647 30.117647 0 1 0-60.235294 0Z" fill="#636686" p-id="5652"></path><path d="M813.176471 499.952941c114.447059 0 210.823529 96.376471 210.823529 210.82353s-96.376471 210.823529-210.823529 210.823529-210.823529-96.376471-210.82353-210.823529 90.352941-210.823529 210.82353-210.82353z m0 373.458824c90.352941 0 162.635294-72.282353 162.635294-162.635294 0-90.352941-72.282353-162.635294-162.635294-162.635295-90.352941 0-162.635294 72.282353-162.635295 162.635295 0 90.352941 72.282353 162.635294 162.635295 162.635294z" fill="#636686" p-id="5653"></path><path d="M873.411765 686.682353h-42.164706v-42.164706c0-12.047059-12.047059-24.094118-24.094118-24.094118s-24.094118 12.047059-24.094117 24.094118v42.164706h-42.164706c-12.047059 0-24.094118 12.047059-24.094118 24.094118s12.047059 24.094118 24.094118 24.094117h42.164706v42.164706c0 12.047059 12.047059 24.094118 24.094117 24.094118s24.094118-12.047059 24.094118-24.094118v-42.164706h42.164706c12.047059 0 24.094118-12.047059 24.094117-24.094117 6.023529-12.047059-6.023529-24.094118-24.094117-24.094118z" fill="#3BBAFF" p-id="5654"></path></svg>