<?xml version="1.0" standalone="no"?><!DOCTYPE svg PUBLIC "-//W3C//DTD SVG 1.1//EN" "http://www.w3.org/Graphics/SVG/1.1/DTD/svg11.dtd"><svg t="1530696921420" class="icon" style="" viewBox="0 0 1024 1024" version="1.1" xmlns="http://www.w3.org/2000/svg" p-id="4595" xmlns:xlink="http://www.w3.org/1999/xlink" width="128" height="128"><defs><style type="text/css"></style></defs><path d="M534.2 826.5c-58 0-217.6-44.6-239.2-50.7-20.9-1.5-37.4-18.4-37.4-39l1.4-285.3 37.9 0.2-1.4 285.2c0 0.2 0.9 1.2 2.5 1.2h2.6l2.5 0.7c1.7 0.5 175.2 49.8 230.9 49.8 46.3 0 182.4-36 230.9-49.8l2.5-0.7h2.6c1.6 0 2.5-1 2.5-1.3l1-280.7 37.9 0.1-1 280.6c0 20.5-16.5 37.5-37.4 39-21.2 6.1-180.8 50.7-238.8 50.7z" fill="#444444" p-id="4596"></path><path d="M778.4 435.4l-239.3 96.1c-3.2 1.3-6.6 1.3-9.8 0L290 435.4c-11.7-4.7-11.7-22 0-26.7l239.3-96.1c3.2-1.3 6.6-1.3 9.8 0l239.3 96.1c11.7 4.7 11.7 22 0 26.7z" fill="#FEE632" p-id="4597"></path><path d="M698.9 473.8l-0.7 178.7c0 7.1-6.1 12.9-13.7 12.9 0 0-112.8 32.2-150.4 32.2-37.6 0-150.4-32.2-150.4-32.2-7.6 0-13.7-5.8-13.7-12.9l0.9-181.7" fill="#FEE632" p-id="4598"></path><path d="M534.2 567.4c-5 0-10-1-14.8-2.9l-375.8-151C128 407.2 118 392.1 118 375s10.1-32.3 25.6-38.5l375.8-151c9.5-3.8 20-3.8 29.5 0l375.8 151c15.6 6.3 25.6 21.4 25.6 38.5s-10.1 32.3-25.6 38.5l-375.8 151c-4.7 1.9-9.7 2.9-14.7 2.9z m0-346.8c-0.2 0-0.4 0-0.6 0.1l-375.8 151c-1.6 0.6-1.9 2.2-1.9 3.4s0.3 2.8 1.9 3.4l375.8 151c0.4 0.2 0.9 0.2 1.3 0l375.8-151c1.6-0.6 1.9-2.2 1.9-3.4s-0.3-2.8-1.9-3.4l-375.8-151c-0.3-0.1-0.5-0.1-0.7-0.1z" fill="#444444" p-id="4599"></path><path d="M77.3 802.7c-1.7 0-3.5-0.2-5.3-0.8-10-2.9-15.8-13.4-12.9-23.5l86.3-297c1-5.6 3.9-19.9 7.5-33.7 9.1-34.6 16.7-43.8 23.5-48.4 5.7-3.9 12.5-5.1 18.9-3.4 10.1 2.7 16.1 13.1 13.4 23.2-1.5 5.8-5.6 10.2-10.7 12.5-5.6 11.1-13.4 44-15.4 56.6l-0.1 1.3-87 299.5c-2.4 8.3-10 13.7-18.2 13.7z m105.4-314.9v0z" fill="#444444" p-id="4600"></path></svg>