<?xml version="1.0" standalone="no"?><!DOCTYPE svg PUBLIC "-//W3C//DTD SVG 1.1//EN" "http://www.w3.org/Graphics/SVG/1.1/DTD/svg11.dtd"><svg t="1528455706299" class="icon" style="" viewBox="0 0 1024 1024" version="1.1" xmlns="http://www.w3.org/2000/svg" p-id="4068" xmlns:xlink="http://www.w3.org/1999/xlink" width="128" height="128"><defs><style type="text/css"></style></defs><path d="M515 725.8c-10.8 0-19.5-8.7-19.5-19.5v-19.5c0-10.8 8.7-19.5 19.5-19.5s19.5 8.7 19.5 19.5v19.5c0 10.8-8.7 19.5-19.5 19.5zM515 628.5c-0.6 0-1.3 0-1.9-0.1-10.7-1-18.5-10.5-17.5-21.1 0.2-2.1 5.2-52.1 39.7-89.3 15.7-16.9 33.7-29.2 49.5-40.1 32.2-22 49.1-35 49.1-65.9 0-64.4-53.3-116.7-118.9-116.7-65.6 0-118.9 52.4-118.9 116.7 0 10.8-8.7 19.5-19.5 19.5s-19.5-8.7-19.5-19.5c0-85.8 70.8-155.7 157.8-155.7 87 0 157.8 69.8 157.8 155.7 0 52.9-35.1 76.9-66 98-14.8 10.1-30.2 20.6-42.9 34.4-25.3 27.3-29.5 66.1-29.5 66.5-0.9 10.1-9.4 17.6-19.3 17.6z" fill="#FF7878" p-id="4069"></path><path d="M515 103.1c214.6 0 389.2 174.6 389.2 389.2S729.6 881.5 515 881.5c-45.7 0-91.3-8.3-135.4-24.7-4.4-1.6-9-2.4-13.6-2.4-4.5 0-9 0.8-13.3 2.3L236 899.1l18.6-92.8c2.6-12.9-1.6-26.3-11-35.5-75.9-74-117.7-172.9-117.7-278.5 0-214.6 174.6-389.2 389.1-389.2m0-38.9c-236.4 0-428 191.7-428 428.1 0 120.2 49.7 228.6 129.4 306.4l-32.1 160.6L366 893.2c46.5 17.3 96.5 27.2 149 27.2 236.4 0 428.1-191.7 428.1-428.1 0-236.4-191.6-428.1-428.1-428.1z" fill="#FF7878" p-id="4070"></path></svg>