<?xml version="1.0" standalone="no"?><!DOCTYPE svg PUBLIC "-//W3C//DTD SVG 1.1//EN" "http://www.w3.org/Graphics/SVG/1.1/DTD/svg11.dtd"><svg t="1528636357784" class="icon" style="" viewBox="0 0 1024 1024" version="1.1" xmlns="http://www.w3.org/2000/svg" p-id="4680" xmlns:xlink="http://www.w3.org/1999/xlink" width="128" height="128"><defs><style type="text/css"></style></defs><path d="M384 320c0 70.7 57.3 128 128 128s128-57.3 128-128-57.3-128-128-128-128 57.3-128 128z" fill="#FFB74D" p-id="4681"></path><path d="M768 610.4s-70.4-151.5-256-151.5-256 151.5-256 151.5v83.2h512v-83.2z" fill="#607D8B" p-id="4682"></path><path d="M347.5 189.1l-30-12.2L513 97l195.5 79.9L513 256.8l-158.7-64.9m345.9-13.3v78.9h7.8v-78.9h-7.8z m-10.9 154.6h29.6v-76.8h-29.6v76.8z" fill="#666666" p-id="4683"></path><path d="M553.9 515.2c2.1-4.3 2.3-8.7 0.6-13.4-1.7-4.6-4.3-9.1-7.7-13.4-3.4-4.2-7.5-8.9-12.3-13.8 0 0-2.8-0.2-6.6-1.3-10.9-3.9-22.7-3.9-33.8-0.1-3.8 1.1-6.6 1.4-6.6 1.4-4.7 4.9-8.5 9.6-11.2 13.8-2.7 3.6-4.9 7.5-6.6 11.8s-1.6 8.2 0.5 11.7c4.7 9.9 8.9 18.7 12.3 26.1 3.4 7.5 7.1 13.4 11.2 17.6-1.4 6.4-3.4 15.5-6.2 27.2-2.7 11.8-5.2 23.8-7.6 36.3-2.4 12.4-4.4 24.2-6.2 35.2-1.7 11-2.5 19.4-2.5 25 0 3.6 1.5 7.8 4.6 12.8s6.7 10.1 10.7 15.5c4.1 5.3 8.4 9.8 12.8 13.4 4.4 3.6 8.4 5.3 11.8 5.3 3.4 0 7.5-1.8 12.2-5.3 4.8-3.6 9.4-7.6 13.8-12.3 4.4-4.6 8.2-9.6 11.2-14.9 3.1-5.3 4.6-9.8 4.6-13.3 0-4.3-1-11.6-3-21.9-2.1-10.3-4.3-21.9-6.7-34.7-2.3-12.8-4.9-25.3-7.7-37.4-2.7-12.1-5.1-21.7-7.1-28.8 4.1-3.6 8-8.7 11.7-15.5 3.7-6.5 8.3-15.6 13.8-27z" fill="#FFFFFF" p-id="4684"></path><path d="M874.7 586.9H149.3L128 672.2l106.7 64-42.7-64h640l-42.7 64 106.7-64-21.3-85.3z" fill="#B0BEC5" p-id="4685"></path><path d="M192 672.2h640l-85.3 256H277.3l-85.3-256z" fill="#78909C" p-id="4686"></path></svg>