<?xml version="1.0" standalone="no"?><!DOCTYPE svg PUBLIC "-//W3C//DTD SVG 1.1//EN" "http://www.w3.org/Graphics/SVG/1.1/DTD/svg11.dtd"><svg t="1522582719367" class="icon" style="" viewBox="0 0 1024 1024" version="1.1" xmlns="http://www.w3.org/2000/svg" p-id="6065" xmlns:xlink="http://www.w3.org/1999/xlink" width="200" height="200"><defs><style type="text/css"></style></defs><path d="M275.7 902.6H155.2c-13.8 0-25.1-11.2-25.1-25.1V165.2c0-13.8 11.2-25.1 25.1-25.1h120.5c13.8 0 25.1 11.2 25.1 25.1v712.3c0 13.8-11.2 25.1-25.1 25.1z" fill="#FC6B79" p-id="6066"></path><path d="M275.7 911.6H155.2c-18.8 0-34.1-15.3-34.1-34.1V165.2c0-18.8 15.3-34.1 34.1-34.1h120.5c18.8 0 34.1 15.3 34.1 34.1v712.3c0 18.8-15.3 34.1-34.1 34.1zM155.2 149.1c-8.9 0-16.1 7.2-16.1 16.1v712.3c0 8.9 7.2 16.1 16.1 16.1h120.5c8.9 0 16.1-7.2 16.1-16.1V165.2c0-8.9-7.2-16.1-16.1-16.1H155.2z" fill="#330867" p-id="6067"></path><path d="M281.3 893.9H150.1c-6.1 0-11-4.9-11-11V159.3c42.6 685.8 0 723.6 142.2 734.6z" fill="#DD365E" p-id="6068"></path><path d="M503.9 902.6H383.4c-13.8 0-25.1-11.2-25.1-25.1V165.2c0-13.8 11.2-25.1 25.1-25.1h120.5c13.8 0 25.1 11.2 25.1 25.1v712.3c-0.1 13.8-11.3 25.1-25.1 25.1z" fill="#FFE08A" p-id="6069"></path><path d="M503.9 911.6H383.4c-18.8 0-34.1-15.3-34.1-34.1V165.2c0-18.8 15.3-34.1 34.1-34.1h120.5c18.8 0 34.1 15.3 34.1 34.1v712.3c-0.1 18.8-15.3 34.1-34.1 34.1zM383.4 149.1c-8.9 0-16.1 7.2-16.1 16.1v712.3c0 8.9 7.2 16.1 16.1 16.1h120.5c8.9 0 16.1-7.2 16.1-16.1V165.2c0-8.9-7.2-16.1-16.1-16.1H383.4z" fill="#330867" p-id="6070"></path><path d="M508.7 893.9H377.4c-6.1 0-11-4.9-11-11V159.3c42.7 685.8 0.1 723.6 142.3 734.6z" fill="#EAB236" p-id="6071"></path><path d="M886 867.4l-115.8 33.5c-13.3 3.8-27.2-3.8-31-17.1L541 199.6c-3.8-13.3 3.8-27.2 17.1-31l115.8-33.5c13.3-3.8 27.2 3.8 31 17.1L903 836.4c3.9 13.2-3.7 27.1-17 31z" fill="#66C1FF" p-id="6072"></path><path d="M763.3 910.9c-14.8 0-28.4-9.7-32.7-24.6L532.4 202.1c-5.2-18 5.2-37 23.2-42.2l115.8-33.5c18-5.2 37 5.2 42.2 23.2l198.1 684.2c5.2 18-5.2 37-23.2 42.2l-115.8 33.5c-3.1 1-6.3 1.4-9.4 1.4z m-82.4-767.8c-1.5 0-3 0.2-4.5 0.6l-115.8 33.5c-8.5 2.5-13.4 11.4-11 19.9l198.1 684.2c2.5 8.5 11.4 13.4 19.9 11l115.8-33.5c8.5-2.5 13.4-11.4 11-19.9L696.3 154.7c-2-7.1-8.5-11.6-15.4-11.6zM300.8 371.2H130.1c-5 0-9-4-9-9s4-9 9-9h170.6c5 0 9 4 9 9s-3.9 9-8.9 9z" fill="#330867" p-id="6073"></path><path d="M526.9 371.2H359c-5 0-9-4-9-9s4-9 9-9h167.9c5 0 9 4 9 9s-4 9-9 9z" fill="#330867" p-id="6074"></path><path d="M595.8 397.5c-3.8 0-7.3-2.4-8.6-6.2-1.5-4.7 1.1-9.8 5.8-11.3l162.3-52.5c4.7-1.5 9.8 1.1 11.3 5.8 1.5 4.7-1.1 9.8-5.8 11.3l-162.3 52.5c-0.9 0.3-1.8 0.4-2.7 0.4z" fill="#330867" p-id="6075"></path><path d="M577.9 162.7l50.4 169.8 27.3-44.7 48.1 22.9L652.9 141z" fill="#18A3D3" p-id="6076"></path><path d="M628.3 335.5h-0.4c-1.2-0.2-2.1-1-2.5-2.1l-50.3-169.8c-0.2-0.8-0.1-1.6 0.2-2.3 0.4-0.7 1-1.2 1.8-1.4l74.9-21.7c1.6-0.5 3.2 0.4 3.7 2l50.9 169.7c0.3 1.1 0 2.4-0.9 3.1-0.9 0.8-2.2 0.9-3.2 0.4l-45.6-21.8L631 334c-0.7 1-1.7 1.5-2.7 1.5z m-46.6-170.7l47.6 160.4 23.8-39c0.8-1.3 2.5-1.8 3.9-1.1l42 20-48.1-160.3-69.2 20z" fill="#330867" p-id="6077"></path></svg>