<?xml version="1.0" standalone="no"?><!DOCTYPE svg PUBLIC "-//W3C//DTD SVG 1.1//EN" "http://www.w3.org/Graphics/SVG/1.1/DTD/svg11.dtd"><svg t="1522582733517" class="icon" style="" viewBox="0 0 1024 1024" version="1.1" xmlns="http://www.w3.org/2000/svg" p-id="6204" xmlns:xlink="http://www.w3.org/1999/xlink" width="200" height="200"><defs><style type="text/css"></style></defs><path d="M630.4 13.92V32H608c-36.8 68.8-8 108.8 0 116.8h27.2V296h304v32h-22.4c-36.8 68.8-8 107.2 0 116.8H944v341.856c50.576-79.376 80-173.552 80-274.656 0-242-167.936-444.64-393.6-498.08zM385.6 905.6v-176H174.4h-3.2c-8 0-36.8-1.6-60.8-24-22.4-20.8-33.6-52.8-33.6-94.4V242.336C28.16 320.656 0 413.024 0 512c0 265.056 201.408 483.056 459.52 509.344-11.968-2.864-26.848-8.768-40.32-21.344-22.4-20.8-33.6-52.8-33.6-94.4zM475.2 294.4c-49.6 0-89.6 41.6-89.6 91.2 0-49.6 40-91.2 91.2-91.2h-1.6z" fill="#E8E8E8" p-id="6205"></path><path d="M564.8 294.4h40V180.8h-41.6v113.6zM148.8 179.2c4.8 1.6 11.2 1.6 17.6 1.6h1.6c-6.4 0-11.2 0-17.6-1.6-7.168-1.6-14.336-3.984-21.104-7.168-6.512 7.328-12.8 14.88-18.896 22.576V611.2c0 32 6.4 56 22.4 70.4 17.6 17.6 41.6 16 41.6 16h211.2v-40H148.8V179.2zM166.4 148.8h404.8c-3.2-6.4-6.4-12.8-8-20.8H344V96h214.4v-12.8H259.2v-16.368a513.696 513.696 0 0 0-106.224 80.256c4.32 1.024 8.768 1.712 13.424 1.712zM564.8 51.2c3.2-6.4 4.8-12.8 8-19.2H333.6a512.79 512.79 0 0 0-44.96 19.2H564.8zM475.2 324.8c-32 0-57.6 27.2-57.6 59.2 0 33.6 25.6 59.2 57.6 59.2H880c-3.2-6.4-6.4-12.8-8-20.8H652.8v-32h214.4v-12.8H568v-32h305.6c3.2-6.4 4.8-12.8 8-19.2v-1.6H475.2z" fill="#E8E8E8" p-id="6206"></path><path d="M771.008 953.6H872V475.2H473.6c-5.824 0-10.416-0.144-16-1.344V953.6h313.408z" fill="#9DE8F7" p-id="6207"></path><path d="M475.2 443.2H880c-3.2-6.4-6.4-12.8-8-20.8H652.8v-32h214.4v-12.8H568v-32h305.6c3.2-6.4 4.8-12.8 8-19.2v-1.6H475.2c-32 0-57.6 27.2-57.6 59.2 0 33.6 25.6 59.2 57.6 59.2zM152.976 147.088c4.32 1.024 8.768 1.712 13.424 1.712h404.8c-3.2-6.4-6.4-12.8-8-20.8H344V96h214.4v-12.8H259.2v-32h305.6c3.2-6.4 4.8-12.8 8-19.2H166.4C136 32 108.8 57.6 108.8 89.6c0 28.72 18.768 51.44 44.176 57.488z" fill="#FFFFFF" p-id="6208"></path><path d="M476.8 294.4h128V180.8H168c-6.4 0-11.2 0-17.6-1.6-7.168-1.6-14.336-3.984-21.104-7.168-6.832-3.2-13.264-7.216-18.896-12.032v451.2c0 32 6.4 56 22.4 70.4 17.6 17.6 41.6 16 41.6 16h211.2v-312c0-49.6 40-91.2 91.2-91.2z" fill="#FFFFFF" p-id="6209"></path><path d="M916.8 444.8c-8-9.6-36.8-48 0-116.8h22.4v-32h-304V148.8H608c-8-8-36.8-48 0-116.8h22.4V0h-464C116.8 0 76.8 40 76.8 91.2v520c0 41.6 11.2 73.6 33.6 94.4 24 22.4 52.8 24 60.8 24H385.6v176c0 41.6 11.2 73.6 33.6 94.4 13.472 12.576 28.352 18.48 40.32 21.344 9.344 2.224 16.976 2.656 20.48 2.656h464V444.8h-27.2z m-35.2-120v1.6c-3.2 6.4-4.8 12.8-8 19.2H568v32h299.2v12.8H652.8v32H872c1.6 8 4.8 14.4 8 20.8H475.2c-32 0-57.6-25.6-57.6-59.2 0-32 25.6-59.2 57.6-59.2h406.4z m-496 332.8v40H174.4s-24 1.6-41.6-16c-16-14.4-22.4-38.4-22.4-70.4V160c5.632 4.816 12.064 8.832 18.896 12.032C136.064 175.216 143.232 177.6 150.4 179.2c6.4 1.6 11.2 1.6 17.6 1.6h436.8v113.6h-128c-51.2 0-91.2 41.6-91.2 91.2v272zM166.4 32h406.4c-3.2 6.4-4.8 12.8-8 19.2H259.2v32h299.2V96H344v32h219.2c1.6 8 4.8 14.4 8 20.8H166.4c-4.656 0-9.104-0.688-13.424-1.712C127.568 141.04 108.8 118.32 108.8 89.6 108.8 57.6 136 32 166.4 32zM912 831.424V992H481.6s-22.4 1.6-41.6-16c-16-14.4-24-38.4-24-70.4V454.4c11.2 9.6 25.6 16 40 19.2 0.576 0.144 1.04 0.128 1.6 0.256 5.584 1.2 10.176 1.344 16 1.344H912v356.224z" fill="" p-id="6210"></path><path d="M475.2 294.4h88V180.8H166.4c-6.4 0-12.8 0-17.6-1.6v478.4h236.8v-272c0-49.6 40-91.2 89.6-91.2z" fill="#FAD97F" p-id="6211"></path></svg>