<?xml version="1.0" standalone="no"?><!DOCTYPE svg PUBLIC "-//W3C//DTD SVG 1.1//EN" "http://www.w3.org/Graphics/SVG/1.1/DTD/svg11.dtd"><svg t="1528385841652" class="icon" style="" viewBox="0 0 1024 1024" version="1.1" xmlns="http://www.w3.org/2000/svg" p-id="8367" xmlns:xlink="http://www.w3.org/1999/xlink" width="128" height="128"><defs><style type="text/css"></style></defs><path d="M488.0798829040906 347.742805689135L194.44330114997598 446.8392872110829l293.6365817541145 97.32859207177917z" fill="#A97A46" p-id="8368"></path><path d="M488.0798829040906 544.9928335060547v-196.42507359372706l298.1143972179464 98.97850366034444" fill="#8D6134" p-id="8369"></path><path d="M99.11765873027088 345.5038971716741l289.98372051347525-107.46311394962598 98.97850366034444 110.0550636727756-293.6365817541145 98.74344031625922z" fill="#EDBB7C" p-id="8370"></path><path d="M586.9413010819534 239.2196726011412L485.7238904752379 349.2747362739169l299.2923942179177 99.44952272763662 96.73959357179348-97.21150816038745z" fill="#EDBB7C" p-id="8371"></path><path d="M559.722256330215 552.2985559873331l-88.3738535232372 67.75355646227838c-6.126831531095371 4.712878807917072-13.31457615077035 4.241859740624896-15.789440391438257-1.1779954288813241l-84.48503813048099-185.58536325471468c-2.474864240667906-5.53783460219971 1.413952723178298-12.25455858349251 8.483719481249793-15.082464029849104l101.92438696830452-39.47360176414064c5.184791825421015-2.0029512231639615 10.9585837219177 0.1179778616034853 13.079512806685145 4.712878807917072l69.52055039114538 154.3595236775268c2.0029512231639615 4.595794896525357 0.11708391139171614 11.076561583521187-4.359837602228382 14.493465529863444z" fill="#E5E5E5" p-id="8372"></path><path d="M281.9922004500206 345.97491781005635l-87.54889930004455 100.86436940102666 293.6365817541145 97.32859207177917 91.43771626389076-108.87617429368252z" fill="#F4D0A0" p-id="8373"></path><path d="M617.2233130530434 887.2937128671491c-4.477815463831867-0.8249542231926341-7.5416782044854385-5.0668139638175305-6.7167239812928035-9.5446309987394l86.01696871526276-500.90315358727753c2.1209290847674467-12.25455858349251-6.362788825392344-24.03720257839107-18.853304703181827-26.15902561337029-12.490514306699485-2.1209290847674467-24.391137734291533 6.126831531095371-26.51206681905898 18.38139011458788-0.8249542231926341 4.477815463831867-5.184791825421015 7.42370034288195-9.662607289252884 6.480766686995827-4.359837602228382-0.8249542231926341-7.305722481278466-4.948836102214045-6.5987461196893165-9.308673704442427 3.652861240639233-21.20929556094448 24.038096528602843-35.58478322920443 45.48334938384429-31.814838077173484 21.445252855241446 3.652861240639233 35.93871838510489 23.920117095909355 32.285857144465666 45.24739208954733l-86.01696871526276 500.90315515836755c-0.5881045497738944 4.479603364255406-4.947942152002277 7.424594293093722-9.425757615834144 6.717617931504571z" fill="" p-id="8374"></path><path d="M619.9341345880081 864.7884424446296c-3.7708391022427192-0.706976361589149-6.5987461196893165-3.7708391022427192-6.8338078926845185-7.541679775575439l-27.572979907638587-379.06455196939163c-0.23595729429697365-2.709927584753111 0.9429336558861225-5.419855169506222 3.181842173347058-7.069765186981492s5.0668139638175305-2.1209290847674467 7.658763686967155-1.2959748615748126c7.42370034288195 2.474864240667906 13.786489168274297 4.123880307931408 19.678257355284465 5.0668139638175305 23.448204078405414 4.005902446327923 39.59157962574413-2.0029512231639615 69.0495313238532-25.805090457469827 1.7678878790787567-1.413952723178298 4.005902446327923-2.1209290847674467 6.362788825392344-1.7678878790787567 2.2389085174609353 0.23595729429697365 4.241859740624896 1.531932155871786 5.655812463803193 3.4169039463422592 16.850351908927863 23.802139234305876 49.725207553379185 44.65839358956166 78.24022716669214 49.60722969177571 4.477815463831867 0.8249542231926341 7.5416782044854385 5.0668139638175305 6.7167239812928035 9.5446309987394-0.1179778616034853 0.706976361589149-0.3530412056886899 1.2959748615748126-0.5889984999856636 1.884971790470473l-152.59252817756985 348.1926475481042c-1.5328245349935525 3.5357757581575133-5.302771258114505 5.538726981321474-8.955632498753738 4.831752190822329z" fill="#FF3B4E" p-id="8375"></path><path d="M488.0798829040906 544.1678792828623v393.2049762935664l-293.6365817541145-97.91848452197658V446.8392872110829z" fill="#D4A263" p-id="8376"></path><path d="M488.0798829040906 544.1678792828623v393.2049762935664l298.1143972179464-97.91848452197658V446.8392872110829z" fill="#A97A46" p-id="8377"></path><path d="M488.0798829040906 544.1678792828623l298.1143972179464-94.26562328133735 94.61866448702604 96.6225096604018-293.754559615718 100.03941360674406z" fill="#F4D0A0" p-id="8378"></path><path d="M839.2184137601548 386.39145165899316H667.8914542623085l-85.66392593848408 85.6639275095741V172.29107036205556c0-47.1323654511078 38.53066810825452-85.6639275095741 85.66392593848408-85.66392593848408h171.3269594978464c47.1323654511078 0 85.6639275095741 38.53066810825452 85.6639275095741 85.66392593848408v128.4364553584535c0 47.13325940131957-38.53066810825452 85.6639275095741-85.6639275095741 85.66392593848408z" fill="#2196F3" p-id="8379"></path><path d="M762.8211537216105 285.2714627722807h-33.11260083917184v-11.789794025502713c0-8.94580061751428 1.6302462549963554-16.575962610974834 4.891634286290841-22.889595172349892 3.2604940810827143-6.312737040073288 8.736657116300371-12.64603179283726 16.431170956288284-19.002562966747224 8.861785008508006-7.274440508226558 14.757128996365251-13.232348442187615 17.685139584449963-17.87283142276141 2.9253271663593994-4.640482980573795 4.389331674856753-9.63579506725982 4.389331674856753-14.98861811069338 0-6.187609147865652-2.175450621145348-11.119463338236088-6.521880541287195-14.800924701291926-4.348217820565386-3.67878108351053-10.578728723145943-5.519064789932563-18.68884928601636-5.519064789932563-15.721514315153826 0-30.35262146909967 5.854230133565874-43.898683592018145 17.559116170940552v-38.631664058014394c14.967166447790925-8.360377918375693 30.980051972741393-12.542353992442077 48.03865343267139-12.542353992442077 19.146462242312005 0 34.03140098152019 4.390225625068521 44.65124355895751 13.169784496083798 10.61805467701377 8.779558871015277 15.928869915944198 20.653366934434256 15.928869915944198 35.62053338222518 0 9.617025254992676-2.175450621145348 18.480599735014223-6.521882112377198 26.589826347672872-4.349111770777155 8.111908463293956-11.83358973042939 16.47496666121495-22.45164440744316 25.085600364005916-8.948482468149587 7.108197190637552-14.654345146181836 12.688933547552164-17.120271455822053 16.743993828987374-2.4677142100637557 4.056848181858747-3.7002311753229815 8.926136855035363-3.7002311753229815 14.612337341678696v8.656217308141176z m-16.43117252737828 18.312570088091682c6.3529569441528855 0 11.789794025502713 2.04942720763594 16.305149113868872 6.145601343362517 4.515355088366161 4.097962036150114 6.77303184700424 9.073610360357222 6.77303184700424 14.926052593499557 0 5.686200486643334-2.257676758638079 10.578728723145943-6.77303184700424 14.674902858872517-4.515355088366161 4.095280185514807-9.95219216971599 6.145601343362517-16.305149113868872 6.145601343362517-6.439652832704461 0-11.873809634508985-2.069090970114856-16.305149113868872-6.208166860556338-4.433127379783428-4.139074319351478-6.647903954796603-9.009258513829867-6.6479023837066-14.612337341678696 0-5.770216095649605 2.2147765750131767-10.724414328044261 6.6479023837066-14.863488647395744 4.431339479359888-4.138181940229712 9.865496281164415-6.208165289466335 16.305149113868872-6.208165289466335z" fill="#FFFFFF" p-id="8380"></path></svg>