<?xml version="1.0" standalone="no"?><!DOCTYPE svg PUBLIC "-//W3C//DTD SVG 1.1//EN" "http://www.w3.org/Graphics/SVG/1.1/DTD/svg11.dtd"><svg t="1528385827703" class="icon" style="" viewBox="0 0 1024 1024" version="1.1" xmlns="http://www.w3.org/2000/svg" p-id="8239" xmlns:xlink="http://www.w3.org/1999/xlink" width="128" height="128"><defs><style type="text/css"></style></defs><path d="M561.106 470.174H460.537c-9.139 0-13.708 4.57-13.708 13.708 0 10.678 4.569 15.247 13.708 13.714h100.569c9.138 1.533 13.714-3.037 13.714-13.714 0-9.138-4.576-13.708-13.714-13.708z" fill="#F2C72D" p-id="8240"></path><path d="M512.726 239.015c-150.767 0-272.989 122.221-272.989 272.984 0 150.759 122.222 272.987 272.989 272.987 150.758 0 272.98-122.229 272.98-272.987 0-150.763-122.223-272.984-272.98-272.984zM391.972 636.092c-6.102-3.714-6.102-7.43 0-11.158 73.141-7.429 108.175-33.474 105.139-78.105 4.568-6.186 9.146-6.186 13.714 0 1.518 52.074-38.106 81.833-118.853 89.263z m45.719-100.407c-9.145 0-13.722 3.715-13.722 11.144v55.79c-4.562 4.958-9.138 4.958-13.714 0v-59.505c0-12.386 7.62-18.587 22.86-18.587h150.851c16.745 0 24.378 6.201 22.853 18.587v59.505c-4.575 6.2-9.146 6.2-13.715 0v-55.79c1.52-7.429-3.05-11.144-13.714-11.144H437.691z m127.985-24.375H455.975c-15.254 1.537-22.86-6.087-22.86-22.853v-11.433c0-13.708 7.606-20.572 22.86-20.572h109.701c16.75 0 24.378 7.627 22.852 22.86v9.145c1.526 16.766-6.102 24.39-22.852 22.853zM609.1 636.092c-30.473-12.4-60.183-23.56-89.136-33.474-4.569-6.187-3.045-9.915 4.575-11.158 31.998 11.158 62.464 22.938 91.418 35.338 4.575 6.201 2.288 9.294-6.857 9.294z m22.859-143.065c-7.62 6.102-12.189 4.569-13.714-4.57 9.138-28.947 8.383-44.18-2.288-45.712H414.832c-9.145 0-13.714 4.569-13.714 13.708v27.429c-6.102 6.109-10.678 6.109-13.715 0v-31.991c0-15.233 7.613-22.859 22.853-22.859h38.862c-7.627-9.146-14.484-16.751-20.571-22.856 0-9.142 3.799-12.182 11.426-9.142 10.664 10.674 19.039 21.341 25.141 31.998h41.144v-36.567c4.568-6.087 9.138-6.087 13.707 0v36.567h43.432c13.706-12.182 22.852-22.856 27.421-31.998 7.613-4.569 12.182-2.284 13.714 6.854-6.101 9.149-13.714 17.531-22.853 25.145h31.998c24.377-0.002 30.465 21.332 18.282 63.994z" fill="#F2C72D" p-id="8241"></path><path d="M192.616 643.84c-21.11-34.953-32.736-81.775-32.736-131.841 0-50.065 11.626-96.888 32.736-131.842 19.518-32.316 44.566-50.114 70.532-50.114v-33.43c-38.13 0-73.342 23.532-99.148 66.262-24.214 40.094-37.55 93.054-37.55 149.124 0 56.071 13.336 109.03 37.55 149.124 25.806 42.729 61.018 66.259 99.148 66.259v-33.431c-25.966 0-51.015-17.797-70.532-50.111z" fill="#F2C72D" p-id="8242"></path><path d="M72.633 643.84c-21.11-34.953-32.736-81.775-32.736-131.841 0-50.065 11.626-96.888 32.736-131.842 19.517-32.316 44.565-50.114 70.531-50.114v-33.43c-38.13 0-73.342 23.532-99.148 66.262-24.214 40.094-37.55 93.054-37.55 149.124 0 56.071 13.335 109.03 37.55 149.124 25.806 42.729 61.018 66.259 99.148 66.259v-33.431c-25.965 0-51.014-17.797-70.531-50.111zM862.467 362.875c-25.806-42.73-61.018-66.262-99.148-66.262v33.43c25.967 0 51.016 17.797 70.531 50.114 21.111 34.954 32.736 81.776 32.736 131.842s-11.625 96.888-32.734 131.841c-19.518 32.314-44.566 50.111-70.533 50.111v33.431c38.131 0 73.343-23.53 99.148-66.259 24.215-40.093 37.55-93.053 37.55-149.124 0-56.07-13.335-109.03-37.55-149.124z" fill="#F2C72D" p-id="8243"></path><path d="M982.449 362.875c-25.806-42.73-61.018-66.262-99.148-66.262v33.43c25.967 0 51.016 17.798 70.533 50.114 21.11 34.954 32.735 81.776 32.735 131.842s-11.625 96.888-32.735 131.841c-19.518 32.314-44.566 50.111-70.533 50.111v33.431c38.131 0 73.343-23.53 99.148-66.259C1006.665 621.03 1020 568.07 1020 511.999c0-56.07-13.335-109.03-37.551-149.124z" fill="#F2C72D" p-id="8244"></path><path d="M613.676 429.031h-31.998c9.139-7.613 16.752-15.996 22.853-25.145-1.532-9.138-6.101-11.422-13.714-6.854-4.569 9.142-13.715 19.816-27.421 31.998h-43.432v-36.567c-4.569-6.087-9.139-6.087-13.707 0v36.567h-41.144c-6.102-10.657-14.477-21.324-25.141-31.998-7.626-3.04-11.426 0-11.426 9.142 6.087 6.105 12.944 13.71 20.571 22.856h-38.862c-15.239 0-22.853 7.626-22.853 22.859v31.991c3.037 6.109 7.613 6.109 13.715 0v-27.429c0-9.138 4.569-13.708 13.714-13.708h201.125c10.671 1.532 11.426 16.765 2.288 45.712 1.524 9.139 6.094 10.671 13.714 4.57 12.184-42.66 6.096-63.994-18.282-63.994zM497.111 546.828c3.036 44.632-31.998 70.677-105.139 78.105-6.102 3.729-6.102 7.444 0 11.158 80.747-7.43 120.371-37.188 118.853-89.264-4.568-6.184-9.145-6.184-13.714 0.001zM524.539 591.46c-7.62 1.243-9.145 4.972-4.575 11.158 28.953 9.914 58.663 21.073 89.136 33.474 9.146 0 11.433-3.093 6.857-9.294-28.954-12.401-59.42-24.18-91.418-35.338z" fill="#FFFFFF" p-id="8245"></path><path d="M593.104 546.828v55.79c4.569 6.2 9.14 6.2 13.715 0v-59.505c1.525-12.386-6.107-18.587-22.853-18.587H433.115c-15.24 0-22.86 6.201-22.86 18.587v59.505c4.576 4.958 9.153 4.958 13.714 0v-55.79c0-7.429 4.577-11.144 13.722-11.144H579.39c10.664 0.001 15.233 3.715 13.714 11.144zM565.676 456.453H455.975c-15.254 0-22.86 6.864-22.86 20.572v11.433c0 16.766 7.606 24.39 22.86 22.853h109.701c16.75 1.537 24.378-6.087 22.852-22.853v-9.145c1.526-15.233-6.102-22.86-22.852-22.86z m-4.57 41.143H460.537c-9.139 1.533-13.708-3.037-13.708-13.714 0-9.138 4.569-13.708 13.708-13.708h100.569c9.138 0 13.714 4.57 13.714 13.708 0 10.677-4.576 15.246-13.714 13.714z" fill="#FFFFFF" p-id="8246"></path></svg>