<?xml version="1.0" standalone="no"?><!DOCTYPE svg PUBLIC "-//W3C//DTD SVG 1.1//EN" "http://www.w3.org/Graphics/SVG/1.1/DTD/svg11.dtd"><svg t="1522584305776" class="icon" style="" viewBox="0 0 1024 1024" version="1.1" xmlns="http://www.w3.org/2000/svg" p-id="1596" xmlns:xlink="http://www.w3.org/1999/xlink" width="200" height="200"><defs><style type="text/css"></style></defs><path d="M120.888889 391.111111h782.222222v469.333333h-782.222222zM120.888889 216.888889h789.333333v120.888889h-789.333333z" fill="#FFFFFF" p-id="1597"></path><path d="M725.333333 156.444444c7.822222 0 14.222222 6.4 14.222223 14.222223v42.666666c0 7.822222-6.4 14.222222-14.222223 14.222223s-14.222222-6.4-14.222222-14.222223v-42.666666c0-7.822222 6.4-14.222222 14.222222-14.222223zM298.666667 156.444444c7.822222 0 14.222222 6.4 14.222222 14.222223v42.666666c0 7.822222-6.4 14.222222-14.222222 14.222223s-14.222222-6.4-14.222223-14.222223v-42.666666c0-7.822222 6.4-14.222222 14.222223-14.222223z" fill="#5CBAEA" p-id="1598"></path><path d="M860.444444 832h-696.888888c-7.822222 0-14.222222-6.4-14.222223-14.222222v-398.222222h725.333334v398.222222c0 7.822222-6.4 14.222222-14.222223 14.222222z" fill="#FFC44F" p-id="1599"></path><path d="M334.222222 512h-99.555555c-19.911111 0-35.555556 15.644444-35.555556 35.555556s15.644444 35.555556 35.555556 35.555555h99.555555c19.911111 0 35.555556-15.644444 35.555556-35.555555s-15.644444-35.555556-35.555556-35.555556zM561.777778 512h-99.555556c-19.911111 0-35.555556 15.644444-35.555555 35.555556s15.644444 35.555556 35.555555 35.555555h99.555556c19.911111 0 35.555556-15.644444 35.555555-35.555555s-15.644444-35.555556-35.555555-35.555556zM689.777778 583.111111h99.555555c19.911111 0 35.555556-15.644444 35.555556-35.555555s-15.644444-35.555556-35.555556-35.555556h-99.555555c-19.911111 0-35.555556 15.644444-35.555556 35.555556s15.644444 35.555556 35.555556 35.555555zM334.222222 704h-99.555555c-19.911111 0-35.555556 15.644444-35.555556 35.555556s15.644444 35.555556 35.555556 35.555555h99.555555c19.911111 0 35.555556-15.644444 35.555556-35.555555s-15.644444-35.555556-35.555556-35.555556zM561.777778 704h-99.555556c-19.911111 0-35.555556 15.644444-35.555555 35.555556s15.644444 35.555556 35.555555 35.555555h99.555556c19.911111 0 35.555556-15.644444 35.555555-35.555555s-15.644444-35.555556-35.555555-35.555556z" fill="#194F82" p-id="1600"></path><path d="M874.666667 163.555556h-78.933334c-3.555556-35.555556-34.133333-64-70.4-64s-66.844444 28.444444-70.4 64h-285.155555c-3.555556-35.555556-34.133333-64-70.4-64s-66.844444 28.444444-70.4 64h-78.933334c-46.933333 0-85.333333 38.4-85.333333 85.333333v583.111111c0 46.933333 38.4 85.333333 85.333333 85.333333h725.333334c46.933333 0 85.333333-38.4 85.333333-85.333333v-583.111111c-0.711111-46.933333-39.111111-85.333333-86.044444-85.333333z m-163.555556 7.111111c0-6.4 4.266667-12.088889 9.955556-13.511111h0.711111c1.422222 0 2.133333-0.711111 3.555555-0.711112s2.133333 0 3.555556 0.711112h0.711111c5.688889 1.422222 9.955556 7.111111 9.955556 13.511111v42.666666c0 6.4-4.266667 12.088889-9.955556 13.511111h-0.711111c-1.422222 0-2.133333 0.711111-3.555556 0.711112s-2.133333 0-3.555555-0.711112h-0.711111c-5.688889-1.422222-9.955556-7.111111-9.955556-13.511111v-42.666666z m-426.666667 0c0-6.4 4.266667-12.088889 9.955556-13.511111h0.711111c1.422222 0 2.133333-0.711111 3.555556-0.711112s2.133333 0 3.555555 0.711112h0.711111c5.688889 1.422222 9.955556 7.111111 9.955556 13.511111v42.666666c0 6.4-4.266667 12.088889-9.955556 13.511111h-0.711111c-1.422222 0-2.133333 0.711111-3.555555 0.711112s-2.133333 0-3.555556-0.711112h-0.711111c-5.688889-1.422222-9.955556-7.111111-9.955556-13.511111v-42.666666z m618.666667 661.333333c0 15.644444-12.8 28.444444-28.444444 28.444444h-725.333334c-15.644444 0-28.444444-12.8-28.444444-28.444444v-440.888889h782.222222v440.888889z m0-497.777778h-782.222222v-85.333333c0-15.644444 12.8-28.444444 28.444444-28.444445h78.933334c3.555556 35.555556 34.133333 64 70.4 64s66.844444-28.444444 70.4-64h285.155555c3.555556 35.555556 34.133333 64 70.4 64s66.844444-28.444444 70.4-64h78.933334c15.644444 0 28.444444 12.8 28.444444 28.444445v85.333333z" fill="#194F82" p-id="1601"></path></svg>