<?xml version="1.0" standalone="no"?><!DOCTYPE svg PUBLIC "-//W3C//DTD SVG 1.1//EN" "http://www.w3.org/Graphics/SVG/1.1/DTD/svg11.dtd"><svg t="1522582921654" class="icon" style="" viewBox="0 0 1024 1024" version="1.1" xmlns="http://www.w3.org/2000/svg" p-id="6789" xmlns:xlink="http://www.w3.org/1999/xlink" width="200" height="200"><defs><style type="text/css"></style></defs><path d="M688.4 420.6c0-71.2-27.7-138.2-78.1-188.5C560 181.7 493 154 421.8 154c-2.7 0-5.4 0.1-8.1 0.1-29.6 14.1-57.3 33.3-81.8 57.8-115.2 115.2-115.2 302.1 0 417.3 24.7 24.7 52.6 44 82.5 58.2 70.7 2 141.9-24.3 196-78.3 50.3-50.4 78-117.3 78-188.5z" fill="#91B4FF" p-id="6790"></path><path d="M421.4 744.5c-78.4 0-156.8-28.5-219.1-85.8-11.6-10.7-12.3-28.7-1.6-40.2 10.7-11.6 28.7-12.3 40.2-1.6 105.5 97.2 267.6 93.8 369.1-7.7 50.4-50.4 78.1-117.3 78.1-188.5S660.4 282.5 610 232.2 492.7 154 421.5 154 283.3 181.7 233 232.1c-56 56-84.1 133.4-77 212.4 1.4 15.7-10.2 29.5-25.8 30.9-15.6 1.3-29.5-10.2-30.9-25.8-8.6-95.8 25.5-189.8 93.5-257.7 126.2-126.2 331.4-126.2 457.6 0 126.2 126.2 126.2 331.4 0 457.6-63.4 63.2-146.2 95-229 95z" fill="#3778FF" p-id="6791"></path><path d="M169.3 601.8c-9.6 0-19-4.9-24.4-13.7-4.6-7.5-8.8-15.2-12.7-23-5.1-10.1-9.6-20.7-13.6-31.4-5.5-14.7 2-31.1 16.7-36.6s31.1 2 36.6 16.7c3.3 8.8 7 17.4 11.2 25.8 3.2 6.4 6.7 12.7 10.4 18.9 8.2 13.4 3.9 31-9.6 39.1-4.5 2.9-9.6 4.2-14.6 4.2zM913.1 911.9c-15.3 15.3-40.4 15.3-55.7 0l-261-261c-0.4-0.4-0.4-1 0-1.4l54.3-54.3c0.4-0.4 1-0.4 1.4 0l261 261c15.4 15.3 15.4 40.4 0 55.7z" fill="#3778FF" p-id="6792"></path></svg>