<?xml version="1.0" encoding="UTF-8"?>
<svg xmlns="http://www.w3.org/2000/svg" xmlns:xlink="http://www.w3.org/1999/xlink" viewBox="0 0 64 64" version="1.1" width="128px" height="128px">
<g id="surface1">
<path style=" fill:#FAEFDE;" d="M 55 27 L 31 7 L 7 27 L 7 55 L 55 55 Z "/>
<path style=" fill:#EFD8BE;" d="M 31 7 L 7 27 L 7 28.730469 C 7 29.507813 7.445313 30.214844 8.148438 30.542969 C 8.851563 30.875 9.683594 30.765625 10.28125 30.269531 L 30.359375 13.53125 C 30.730469 13.222656 31.269531 13.222656 31.640625 13.53125 L 51.71875 30.269531 C 52.316406 30.765625 53.148438 30.875 53.851563 30.542969 C 54.554688 30.214844 55 29.507813 55 28.730469 L 55 27 Z "/>
<path style=" fill:#F9DD8F;" d="M 7 45 L 55 45 L 55 55 L 7 55 Z "/>
<path style=" fill:#ED7899;" d="M 25 35 L 37 35 L 37 55 L 25 55 Z "/>
<path style=" fill:#BBDEF9;" d="M 35 23 C 35 25.210938 33.210938 27 31 27 C 28.789063 27 27 25.210938 27 23 C 27 20.789063 28.789063 19 31 19 C 33.210938 19 35 20.789063 35 23 Z "/>
<path style=" fill:#8D6C9F;" d="M 59.359375 31.769531 C 59.785156 32.125 60.417969 32.066406 60.769531 31.640625 C 61.125 31.214844 61.066406 30.582031 60.640625 30.230469 L 31.640625 6.230469 L 31.550781 6.179688 L 31.191406 6 L 30.820313 6 L 30.628906 6.058594 L 30.460938 6.148438 L 30.359375 6.199219 L 18 16.460938 L 18 13.058594 C 18 12.507813 17.550781 12.058594 17 12.058594 C 16.449219 12.058594 16 12.507813 16 13.058594 L 16 18.058594 C 16 18.058594 16 18.058594 16 18.109375 L 14 19.769531 L 14 9.058594 C 14 8.507813 13.550781 8.058594 13 8.058594 C 12.449219 8.058594 12 8.507813 12 9.058594 L 12 21.058594 C 12.003906 21.167969 12.023438 21.277344 12.058594 21.378906 L 1.359375 30.230469 C 0.933594 30.582031 0.875 31.214844 1.230469 31.640625 C 1.582031 32.066406 2.214844 32.125 2.640625 31.769531 L 6 29 L 6 54 L 3 54 C 2.449219 54 2 54.449219 2 55 C 2 55.550781 2.449219 56 3 56 L 59 56 C 59.550781 56 60 55.550781 60 55 C 60 54.449219 59.550781 54 59 54 L 56 54 L 56 29 Z M 8 46 L 24 46 L 24 54 L 8 54 Z M 26 36 L 36 36 L 36 54 L 26 54 Z M 38 54 L 38 46 L 54 46 L 54 54 Z M 54 44 L 38 44 L 38 36 C 38 34.894531 37.105469 34 36 34 L 26 34 C 24.894531 34 24 34.894531 24 36 L 24 44 L 8 44 L 8 27.328125 L 31 8.328125 L 54 27.328125 Z "/>
<path style=" fill:#8D6C9F;" d="M 16 48 C 15.449219 48 15 48.449219 15 49 L 15 51 C 15 51.550781 15.449219 52 16 52 C 16.550781 52 17 51.550781 17 51 L 17 49 C 17 48.449219 16.550781 48 16 48 Z "/>
<path style=" fill:#8D6C9F;" d="M 11 48 C 10.449219 48 10 48.449219 10 49 L 10 51 C 10 51.550781 10.449219 52 11 52 C 11.550781 52 12 51.550781 12 51 L 12 49 C 12 48.449219 11.550781 48 11 48 Z "/>
<path style=" fill:#8D6C9F;" d="M 21 48 C 20.449219 48 20 48.449219 20 49 L 20 51 C 20 51.550781 20.449219 52 21 52 C 21.550781 52 22 51.550781 22 51 L 22 49 C 22 48.449219 21.550781 48 21 48 Z "/>
<path style=" fill:#8D6C9F;" d="M 41 48 C 40.449219 48 40 48.449219 40 49 L 40 51 C 40 51.550781 40.449219 52 41 52 C 41.550781 52 42 51.550781 42 51 L 42 49 C 42 48.449219 41.550781 48 41 48 Z "/>
<path style=" fill:#8D6C9F;" d="M 46 48 C 45.449219 48 45 48.449219 45 49 L 45 51 C 45 51.550781 45.449219 52 46 52 C 46.550781 52 47 51.550781 47 51 L 47 49 C 47 48.449219 46.550781 48 46 48 Z "/>
<path style=" fill:#8D6C9F;" d="M 51 48 C 50.449219 48 50 48.449219 50 49 L 50 51 C 50 51.550781 50.449219 52 51 52 C 51.550781 52 52 51.550781 52 51 L 52 49 C 52 48.449219 51.550781 48 51 48 Z "/>
<path style=" fill:#8D6C9F;" d="M 31 18 C 28.238281 18 26 20.238281 26 23 C 26 25.761719 28.238281 28 31 28 C 33.761719 28 36 25.761719 36 23 C 36 20.238281 33.761719 18 31 18 Z M 31 26.210938 C 29.226563 26.210938 27.789063 24.773438 27.789063 23 C 27.789063 21.226563 29.226563 19.789063 31 19.789063 C 32.773438 19.789063 34.210938 21.226563 34.210938 23 C 34.210938 24.773438 32.773438 26.210938 31 26.210938 Z "/>
<path style=" fill:#8D6C9F;" d="M 33 43 C 32.449219 43 32 43.449219 32 44 L 32 46 C 32 46.550781 32.449219 47 33 47 C 33.550781 47 34 46.550781 34 46 L 34 44 C 34 43.449219 33.550781 43 33 43 Z "/>
</g>
</svg>
